<svg id="copylink" xmlns="http://www.w3.org/2000/svg" width="74.64" height="93.238" viewBox="0 0 74.64 93.238">
  <path id="Path_15" data-name="Path 15" d="M186.115,0H142.77a7.375,7.375,0,0,0-7.37,7.37,2.578,2.578,0,1,0,5.155,0,2.217,2.217,0,0,1,2.215-2.215h43.344A2.217,2.217,0,0,1,188.33,7.37v62.19a2.217,2.217,0,0,1-2.215,2.215,2.578,2.578,0,1,0,0,5.155,7.375,7.375,0,0,0,7.37-7.37V7.37A7.363,7.363,0,0,0,186.115,0Z" transform="translate(-118.845)" fill="#e50000"/>
  <g id="Group_17" data-name="Group 17" transform="translate(0 16.307)">
    <path id="Path_16" data-name="Path 16" d="M99.415,85.4H56.07a7.375,7.375,0,0,0-7.37,7.37v62.19a7.375,7.375,0,0,0,7.37,7.37H99.415a7.375,7.375,0,0,0,7.37-7.37V92.77A7.4,7.4,0,0,0,99.415,85.4Zm2.2,69.542a2.217,2.217,0,0,1-2.215,2.215H56.051a2.217,2.217,0,0,1-2.215-2.215V92.77a2.217,2.217,0,0,1,2.215-2.215H99.4a2.217,2.217,0,0,1,2.215,2.215Z" transform="translate(-48.7 -85.4)" fill="#e50000"/>
    <g id="Group_16" data-name="Group 16" transform="translate(14.283 24.25)">
      <path id="Path_17" data-name="Path 17" d="M123.5,215.627v-1.318a1.915,1.915,0,0,1,1.909-1.909h25.682A1.915,1.915,0,0,1,153,214.309v1.318a1.915,1.915,0,0,1-1.909,1.909H125.409A1.915,1.915,0,0,1,123.5,215.627Z" transform="translate(-123.5 -212.4)" fill="#e50000"/>
      <path id="Path_18" data-name="Path 18" d="M123.5,276.627v-1.318a1.915,1.915,0,0,1,1.909-1.909h25.682A1.915,1.915,0,0,1,153,275.309v1.318a1.915,1.915,0,0,1-1.909,1.909H125.409A1.915,1.915,0,0,1,123.5,276.627Z" transform="translate(-123.5 -261.752)" fill="#e50000"/>
      <path id="Path_19" data-name="Path 19" d="M123.5,337.627v-1.318a1.915,1.915,0,0,1,1.909-1.909h25.682A1.915,1.915,0,0,1,153,336.309v1.318a1.915,1.915,0,0,1-1.909,1.909H125.409A1.915,1.915,0,0,1,123.5,337.627Z" transform="translate(-123.5 -311.105)" fill="#e50000"/>
    </g>
  </g>
</svg>
