<svg xmlns="http://www.w3.org/2000/svg" width="1014" height="624.795" viewBox="0 0 1014 624.795">
  <g id="Group_39" data-name="Group 39" transform="translate(-176 -2439)">
    <g id="Group_37" data-name="Group 37" transform="translate(176 2439)">
      <path id="Path_152" data-name="Path 152" d="M525.5,742.029l1.278-1.329c-.253-.243-25.4-24.867-34.984-70.885-8.851-42.493-5.861-112.454,58.642-204.43,26.951-38.43,45.33-74.739,54.627-107.918,7.6-27.11,9.2-52.313,4.78-74.907-8.747-44.671-38.477-64.282-38.777-64.475l-1,1.549c.293.189,29.4,19.432,37.978,63.337,9.838,50.372-10.052,111.389-59.119,181.355-28.652,40.856-47.725,80.862-56.689,118.909-7.181,30.479-7.929,59.774-2.224,87.074C499.741,716.84,525.246,741.782,525.5,742.029Z" transform="translate(12.498 -121.629)" fill="#f2f2f2"/>
      <ellipse id="Ellipse_39" data-name="Ellipse 39" cx="71.362" cy="71.362" rx="71.362" ry="71.362" transform="translate(528.531 56.619)" fill="#f2f2f2"/>
      <path id="Path_153" data-name="Path 153" d="M523.234,307.911A97.231,97.231,0,1,0,426,210.68a97.231,97.231,0,0,0,97.231,97.231Zm0-192.619a95.388,95.388,0,1,1-95.388,95.388,95.388,95.388,0,0,1,95.388-95.388Z" transform="translate(59.834 -113.449)" fill="#f2f2f2"/>
      <ellipse id="Ellipse_40" data-name="Ellipse 40" cx="59.178" cy="59.178" rx="59.178" ry="59.178" transform="translate(469.353 230.672)" fill="#f2f2f2"/>
      <ellipse id="Ellipse_41" data-name="Ellipse 41" cx="59.178" cy="59.178" rx="59.178" ry="59.178" transform="translate(499.522 436.055)" fill="#f2f2f2"/>
      <rect id="Rectangle_54" data-name="Rectangle 54" width="216.627" height="141.038" transform="translate(310.264 105.087)" fill="#e2c700"/>
      <path id="Path_154" data-name="Path 154" d="M929.14,777.949h200.626s4.067-59.645-19.995-60.323-21.35,26.434-51.512-10.845-66.762-35.245-71.507-13.217,9.15,39.651-16.267,34.228S908.468,736.6,929.14,777.949Z" transform="translate(-907.92 -157.566)" fill="#f2f2f2"/>
      <path id="Path_155" data-name="Path 155" d="M1058.136,777.933l.677-.027c-1.579-39.27-9.8-64.5-16.425-78.753-7.189-15.474-14.117-21.738-14.186-21.8l-.45.507c.068.061,6.915,6.263,14.047,21.632C1048.383,713.683,1056.563,738.811,1058.136,777.933Z" transform="translate(-933.216 -157.536)" fill="#fff"/>
      <path id="Path_156" data-name="Path 156" d="M1132.825,782.8l.651-.189a105.138,105.138,0,0,0-26.471-44.04l-.456.5A104.429,104.429,0,0,1,1132.825,782.8Z" transform="translate(-1080.517 -162.322)" fill="#fff"/>
      <path id="Path_157" data-name="Path 157" d="M939.128,781.494l.672-.093a73.82,73.82,0,0,1,6.64-43.147,59.405,59.405,0,0,1,10.479-15.291l-.469-.489a60.156,60.156,0,0,0-10.618,15.48,74.5,74.5,0,0,0-6.7,43.541Z" transform="translate(-748.881 -161.063)" fill="#fff"/>
      <ellipse id="Ellipse_46" data-name="Ellipse 46" cx="29.917" cy="29.917" rx="29.917" ry="29.917" transform="translate(235.739 270.97)" fill="#2f2e41"/>
      <ellipse id="Ellipse_47" data-name="Ellipse 47" cx="9.938" cy="9.938" rx="9.938" ry="9.938" transform="translate(259.714 251.656)" fill="#2f2e41"/>
      <path id="Path_179" data-name="Path 179" d="M868.46,402.777a9.938,9.938,0,0,0-.849-13.3q.417.268.814.582a9.938,9.938,0,1,1-12.362,15.563,9.787,9.787,0,0,1-.751-.661A9.938,9.938,0,0,0,868.46,402.777Z" transform="translate(-587.625 -135.029)" fill="#2f2e41"/>
      <path id="Path_180" data-name="Path 180" d="M796.307,557.219l17.316,14.652s25.973,7.992,13.32,16.65-19.98-10.656-19.98-10.656l-21.312-13.32Z" transform="translate(-481.649 -148.143)" fill="#ffb9b9"/>
      <path id="Path_181" data-name="Path 181" d="M816.875,487.749l2-1.332s7.992,0,9.324,7.992,5.328,24.641,5.328,24.641,13.32,7.992,11.988,22.643L859.5,553.682s-16.65,5.328-13.32,9.99l-24.642-22.643-.666-43.289Z" transform="translate(-539.512 -142.608)" fill="#2f2e41"/>
      <ellipse id="Ellipse_48" data-name="Ellipse 48" cx="17.316" cy="17.316" rx="17.316" ry="17.316" transform="translate(252.055 295.192)" fill="#ffb9b9"/>
      <path id="Path_182" data-name="Path 182" d="M885.587,464.788s-10.656,11.988-4,18.648,8.658,39.293,8.658,39.293l-29.3-44.621s7.992-15.984,7.326-21.312Z" transform="translate(-610.888 -140.292)" fill="#ffb9b9"/>
      <path id="Path_183" data-name="Path 183" d="M869.187,512.855s-15.984-35.106-24.641-37.533L821.9,480.888s17.982,61.937,15.984,67.931-13.32,14.652-9.324,67.264c0,0-51.281,93.9-38.627,109.888s59.939,27.971,60.6,23.31,21.978-76.588,18.648-98.566c0,0,0,95.236,4,97.234s67.93,16.65,65.932,5.328S905.15,617.415,905.15,617.415l-24.641-77.254-.666-11.322s10.656-7.326,2.664-23.975-10.656-19.314-10.656-19.314l-9.595-1.8S871.185,508.193,869.187,512.855Z" transform="translate(-592.49 -141.741)" fill="#2f2e41"/>
      <path id="Path_184" data-name="Path 184" d="M894.632,570.223l7.992,17.316s20.646,21.978,5.994,22.644-15.984-19.98-15.984-19.98l-10.656-19.98Z" transform="translate(-653.898 -149.16)" fill="#ffb9b9"/>
      <path id="Path_185" data-name="Path 185" d="M913.282,482.047h-8.658s-2.664-4-5.328,12.654-1.332,41.957-1.332,41.957l4,33.3s13.986-5.328,17.316-4,0-.666,0-.666l-5.994-22.644,7.326-32.633Z" transform="translate(-675.212 -142.234)" fill="#2f2e41"/>
      <path id="Path_186" data-name="Path 186" d="M874.89,424.659c11.31,3.073,19.026,10.913,17.233,17.51-.8,2.952-3.378,5.149-6.987,6.407l-3.166-3.928-.144,4.767c-.5.085-1.009.161-1.533.217l-4.023-8.472-2.294,8.441a35.631,35.631,0,0,1-5.579-1.051c-11.31-3.073-19.026-10.913-17.233-17.51S863.58,421.586,874.89,424.659Z" transform="translate(-603.766 -137.683)" fill="#2f2e41"/>
      <ellipse id="Ellipse_49" data-name="Ellipse 49" cx="1.998" cy="3.33" rx="1.998" ry="3.33" transform="translate(249.725 305.515)" fill="#ffb9b9"/>
      <ellipse id="Ellipse_50" data-name="Ellipse 50" cx="15.671" cy="6.914" rx="15.671" ry="6.914" transform="translate(303.812 606.556)" fill="#2f2e41"/>
      <ellipse id="Ellipse_51" data-name="Ellipse 51" cx="21.012" cy="9.218" rx="21.012" ry="9.218" transform="translate(253.974 624.795) rotate(-158.487)" fill="#2f2e41"/>
      <path id="Path_187" data-name="Path 187" d="M801.322,558.756c.275-.068,27.613-7.026,38.016-34.665,11.858-31.5-2.083-75.927-41.434-132.038-48.063-68.535-50.673-91.562-44.4-98.812,7.936-9.171,32.84,3.247,33.089,3.374l.832-1.646c-1.076-.544-26.439-13.188-35.314-2.936-9.752,11.266,5.147,45.274,44.283,101.079,21.323,30.406,35.261,57.7,41.425,81.12,5,18.988,4.931,35.535-.2,49.183-10.045,26.729-36.473,33.486-36.739,33.551Z" transform="translate(-461.074 -127.098)" fill="#3f3d56"/>
      <path id="Path_188" data-name="Path 188" d="M560.421,343.627H791.8V192.449H560.421Zm229.533-1.844H562.265V194.292H789.954Z" transform="translate(-235.408 -119.625)" fill="#3f3d56"/>
      <ellipse id="Ellipse_52" data-name="Ellipse 52" cx="9.709" cy="9.709" rx="9.709" ry="9.709" transform="translate(450.32 149.045)" fill="#3f3d56"/>
      <ellipse id="Ellipse_53" data-name="Ellipse 53" cx="9.709" cy="9.709" rx="9.709" ry="9.709" transform="translate(367.417 149.045)" fill="#3f3d56"/>
      <path id="Path_189" data-name="Path 189" d="M664.144,328.515c0,2.887,18.726,11.2,41.825,11.2s41.825-8.316,41.825-11.2-18.726.747-41.825.747S664.144,325.627,664.144,328.515Z" transform="translate(-287.017 -130.176)" fill="#3f3d56"/>
      <rect id="Rectangle_55" data-name="Rectangle 55" width="1014" height="1.844" transform="translate(0 619.048)" fill="#3f3d56"/>
    </g>
    <path id="Path_158" data-name="Path 158" d="M177.481,777.236l.463-.951c.141-.289,14-29.261,6.273-57.827s-34.3-46.6-34.571-46.779l-.878-.588-.463.951c-.141.289-14,29.261-6.273,57.827s34.3,46.6,34.57,46.779Zm-27.97-103.394c4.653,3.385,26.178,20.153,32.926,45.1,6.753,24.964-3.387,50.28-5.7,55.547-4.653-3.385-26.178-20.153-32.925-45.1h0C137.059,704.425,147.2,679.109,149.511,673.842Z" transform="translate(933.669 2281.954)" fill="#3f3d56"/>
    <path id="Path_159" data-name="Path 159" d="M150.98,729.744C143.253,758.307,116.787,776,116.787,776s-13.938-28.62-6.212-57.183,34.193-46.253,34.193-46.253S158.707,701.181,150.98,729.744Z" transform="translate(995.904 2281.839)" fill="#e2c700"/>
    <path id="Path_160" data-name="Path 160" d="M64.517,779.3l1.055-.058c.321-.017,32.377-1.993,53.582-22.635s24.042-52.633,24.068-52.954l.086-1.052-1.055.058c-.321.017-32.377,1.993-53.582,22.635S64.629,777.926,64.6,778.248Zm76.749-74.712c-.7,5.711-4.882,32.674-23.4,50.7s-45.581,21.485-51.309,22.027c.7-5.712,4.882-32.673,23.4-50.7h0C108.488,708.576,135.541,705.127,141.266,704.588Z" transform="translate(1046.215 2279.49)" fill="#3f3d56"/>
    <path id="Path_161" data-name="Path 161" d="M201.89,726.037c21.2,20.64,23.792,52.368,23.792,52.368S193.9,776.67,172.693,756.03,148.9,703.662,148.9,703.662,180.687,705.4,201.89,726.037Z" transform="translate(886.055 2279.407)" fill="#3f3d56"/>
    <path id="Path_162" data-name="Path 162" d="M388.89,532.037c21.2,20.64,23.792,52.368,23.792,52.368S380.9,582.67,359.693,562.03,335.9,509.662,335.9,509.662,367.687,511.4,388.89,532.037Z" transform="translate(526.675 2294.575)" fill="#3f3d56"/>
    <ellipse id="Ellipse_42" data-name="Ellipse 42" cx="13.827" cy="13.827" rx="13.827" ry="13.827" transform="translate(1098.352 2922.033)" fill="#e2c700"/>
    <path id="Path_163" data-name="Path 163" d="M286.479,750.138l1.278-1.329c-.2-.193-20.147-19.731-27.744-56.238-7.016-33.717-4.633-89.234,46.562-162.234,39.264-55.988,55.153-104.9,47.226-145.387-6.964-35.566-30.65-51.189-30.889-51.343l-1,1.549c.232.15,23.3,15.405,30.09,50.205,7.8,39.962-7.992,88.383-46.938,143.916-22.776,32.477-37.938,64.282-45.065,94.53-5.711,24.24-6.306,47.541-1.767,69.256C265.971,730.087,286.275,749.942,286.479,750.138Z" transform="translate(657.946 2308.339)" fill="#3f3d56"/>
    <ellipse id="Ellipse_43" data-name="Ellipse 43" cx="165.927" cy="28.466" rx="165.927" ry="28.466" transform="translate(787.699 2630.958)" fill="#e2c700"/>
    <path id="Path_164" data-name="Path 164" d="M269.526,368.35c115.012,0,205.1-15.792,205.1-35.951s-90.093-35.951-205.1-35.951S64.421,312.24,64.421,332.4,154.514,368.35,269.526,368.35Zm0-70.058c110.179,0,203.261,15.619,203.261,34.107S379.7,366.507,269.526,366.507,66.265,350.888,66.265,332.4,159.347,298.292,269.526,298.292Z" transform="translate(714.982 2311.244)" fill="#3f3d56"/>
    <g id="Group_38" data-name="Group 38" transform="translate(887.644 2464.811)">
      <path id="Path_131" data-name="Path 131" d="M108.741,285.73a69.954,69.954,0,0,0,3.818,10.635,12.172,12.172,0,0,0,2.418,3.849,4.15,4.15,0,0,0,7.316-2.159,11.03,11.03,0,0,0-.284-4.935,37.778,37.778,0,0,0-4.676-11.252,5.555,5.555,0,0,0-2.6-2.548,4.037,4.037,0,0,0-4.256,1.45,10.715,10.715,0,0,0-1.851,4.361" transform="translate(-41.619 -106.949)" fill="#2f2e41"/>
      <path id="Path_132" data-name="Path 132" d="M88.71,240.823l12.954,30.757c.919,2.178,1.888,4.435,3.7,5.984a4.207,4.207,0,0,0,3.047,1.234,3.88,3.88,0,0,0,2.973-2.467c1.3-2.986-.191-5.731-2.467-9.494-4.041-6.786-5.8-16.181-8.636-23.552a12.405,12.405,0,0,0-2.609-4.491c-1.382-1.6-3.849-1.74-5.885-1.172s-3.387,3.226-2.178,4.935" transform="translate(-33.987 -90.924)" fill="#ffb9b9"/>
      <path id="Path_133" data-name="Path 133" d="M147.388,274.7c1.592-.031,2.751-1.992,4.256-1.456a5.6,5.6,0,0,1,2.591,2.548,37.877,37.877,0,0,1,4.676,11.258,10.943,10.943,0,0,1,.284,4.935,4.6,4.6,0,0,1-3.158,3.547,4.657,4.657,0,0,1-4.158-1.388,12.282,12.282,0,0,1-2.393-3.812,73.52,73.52,0,0,1-3.8-10.635C145.3,278.405,145.063,274.741,147.388,274.7Z" transform="translate(-55.721 -104.652)" fill="#2f2e41"/>
      <path id="Path_134" data-name="Path 134" d="M125.7,234.783c4.318,10.252,8.852,18.79,13.164,29.042.919,2.178,1.974,6.014,3.492,7.828a3.521,3.521,0,0,0,3.158,1.425,3.586,3.586,0,0,0,2.7-2.412c1.3-2.986-.1-6.391-1.487-9.333-3.362-7.137-6.613-14.663-9.426-22.041a18.378,18.378,0,0,0-2.881-5.607,5.743,5.743,0,0,0-5.62-2.11c-2.036.568-3.393,3.226-2.178,4.935" transform="translate(-48.159 -88.665)" fill="#ffb9b9"/>
      <path id="Path_135" data-name="Path 135" d="M42.564,124.143c-6.958-7.933-13.941-15.891-19.74-24.675-2.6-3.948-5.052-8.426-4.522-13.127.253-2.245,1.08-3.43,1.006-5.694a1.912,1.912,0,0,0-.4-1.283,1.481,1.481,0,0,0-1.851-.1,3.763,3.763,0,0,0-1.234,1.567A11.56,11.56,0,0,0,14.33,85.6C10.869,83.429,3.467,82.294,2.9,83.429c-.8,2.406,4.5,4.4,7.754,5.317C7.032,87.63.438,87.735.031,88.895-.3,90.258,2.067,90.856,3.442,91.1l5.262.956c-2.326.345-4.09.87-6.409,1.234a2.456,2.456,0,0,0-1.851.882c-.426.746.154,1.413.931,1.77a4.657,4.657,0,0,0,2.523.142,38.939,38.939,0,0,1,7.026-.185,5.792,5.792,0,0,1,2.159,1.3c3.2,2.739,5.552,6.311,7.865,9.827l11.412,17.39c1.2,1.82,2.671,3.818,4.83,4.053s4.09-1.456,5.262-3.294" transform="translate(0 -30.262)" fill="#ffb9b9"/>
      <path id="Path_136" data-name="Path 136" d="M133.766,137.151c8.217-6.619,16.458-13.269,23.694-20.943,3.245-3.436,6.428-7.433,6.712-12.152.136-2.258-.265-3.343.191-5.552a1.931,1.931,0,0,1,.617-1.234,1.487,1.487,0,0,1,1.851.222,3.664,3.664,0,0,1,.925,1.746,12.974,12.974,0,0,1,.216,5.3,20.32,20.32,0,0,1,9.1-1.542c1.073.093,2.147.16,2.412,1.012.37,1.154-1.431,1.7-3.016,2.295a40.1,40.1,0,0,1-5.188,1.425,38.592,38.592,0,0,1,7.773.722c1.234.167,2.782.364,3.14,1.326.228.617-.777,1.332-1.709,1.592a6,6,0,0,1-1.536.179h-6.261c2.233.74,4.164,1.474,6.391,2.215.666.222,1.413.518,1.647,1.178a1.332,1.332,0,0,1-1.092,1.721,3.9,3.9,0,0,1-2.239-.173c-1.727-.432-3.417-.82-5.114-1.345a6.662,6.662,0,0,0-2.511-.426,5.78,5.78,0,0,0-2.35.907c-3.627,2.147-6.557,5.262-9.438,8.334L143.79,139.131c-1.493,1.585-3.288,3.306-5.459,3.165s-3.775-2.134-4.62-4.145" transform="translate(-51.228 -37.182)" fill="#ffb9b9"/>
      <path id="Path_137" data-name="Path 137" d="M52.29,150.079a24.818,24.818,0,0,0,4.189-2.887,19.8,19.8,0,0,0,2.733-2.912,37.947,37.947,0,0,0,21.942,7.742c13.658.549,15.73,1.234,22.423-1.487,4.738-1.943,8.636-4.01,8.636-4.01a19.74,19.74,0,0,0,2.048,3.658,14.115,14.115,0,0,0,2.955,3.084,80.436,80.436,0,0,1-9.191,11.869c-.913,4.367,1.635,11.35,6.736,18.451s8.377,8.741,8.377,8.741-8.019,12.017-28.407,16.039-33.688-5.823-33.688-5.823,1.641-13.17,2.369-21.911a124.539,124.539,0,0,0,.419-14.9,54.392,54.392,0,0,1-7.952-9.222,59.7,59.7,0,0,1-3.59-6.434Z" transform="translate(-20.034 -55.279)" fill="#d0cde1"/>
      <path id="Path_138" data-name="Path 138" d="M40.186,24.676a13.793,13.793,0,0,0,7.261-11.918c0-2.764-1.147-5.842-3.7-6.841s-5.552.518-8.019,2.023a8.272,8.272,0,0,0-4.2-7.162,6.977,6.977,0,0,0-8.019,1.16,6.037,6.037,0,0,0-.3,7.921c-3.115-.506-6.631.734-8.174,3.485s-.389,6.866,2.6,7.884c2.048.7,4.275-.08,6.44-.1-1.894,3.226-2.03,8.019,1.049,10.135,2.511,1.727,5.953.938,8.723-.333s5.583-3.208,6.816-6.07" transform="translate(-5.499 -0.003)" fill="#2f2e41"/>
      <path id="Path_139" data-name="Path 139" d="M164.685,40.351c-2.7-3.054-5.589-6.983-4.207-10.814,1.326-3.7,6.07-4.991,9.87-4.1-2.029-3.541.333-8.753,4.318-9.562s8.2,3.084,7.7,7.125A7.786,7.786,0,0,1,192.6,33.972a8.019,8.019,0,0,1-8.79,3.411,4.487,4.487,0,0,1,1.894,5.237,7.521,7.521,0,0,1-4.053,4.281,12.587,12.587,0,0,1-16.07-5.04" transform="translate(-61.347 -6.042)" fill="#2f2e41"/>
      <path id="Path_140" data-name="Path 140" d="M50.954,44.484a8.068,8.068,0,0,1-1.3-1.524.814.814,0,0,1-.179-.5.783.783,0,0,1,.167-.389,19.228,19.228,0,0,1,6.23-5.934,1.851,1.851,0,0,1,1.154-.358,1.8,1.8,0,0,1,.919.531,8.766,8.766,0,0,1,1.456,1.783A29.764,29.764,0,0,0,52.077,44.4a1.234,1.234,0,0,1-.487.413.413.413,0,0,1-.531-.222" transform="translate(-18.957 -13.709)" fill="#e2c700"/>
      <path id="Path_141" data-name="Path 141" d="M160,51.543a9.125,9.125,0,0,0,1.524-1.289,2.122,2.122,0,0,1,1.814-.617,2.43,2.43,0,0,1,.993.617,19.543,19.543,0,0,1,5.311,7.483.814.814,0,0,1,.08.376.783.783,0,0,1-.247.4,21.5,21.5,0,0,1-1.894,1.777.487.487,0,0,1-.333.148c-.148,0-.241-.16-.315-.29-1.721-3.041-3.849-5.978-6.8-7.766" transform="translate(-61.3 -19.011)" fill="#e2c700"/>
      <path id="Path_142" data-name="Path 142" d="M117.88,80.011a51.607,51.607,0,0,0,3.084-11.468c.617-4.047.3-8.377-1.746-11.924-1.943-3.374-5.243-5.755-8.636-7.625-7.193-3.936-15.311-6.064-22.257-10.413-2.844-1.783-5.552-3.967-8.865-4.62-5.28-1.049-10.4,2.079-14.879,5.071L48.6,49.7a30.043,30.043,0,0,0-6.4,5.182c-.5.617-.814,1.715-.08,1.937v.056a53.052,53.052,0,0,0-.586,6.391,3.417,3.417,0,0,0-1.746.117,2.912,2.912,0,0,0-1.764,2.27,3.812,3.812,0,0,0,.814,2.8,2.634,2.634,0,0,0,1.08.882,3.7,3.7,0,0,0,1.6.13h.259c.123,1.388.3,2.8.524,4.287a34.654,34.654,0,0,0,6.9,16.619c4.207,5.256,10.209,8.883,16.575,11.1a54.9,54.9,0,0,0,6.631,1.82,36.18,36.18,0,0,1-.771,5.552,3.7,3.7,0,0,0-.049,1.474,3.942,3.942,0,0,0,1.758,2.412,13.2,13.2,0,0,0,7.668.888,2.64,2.64,0,0,0,1.733-.956,2.893,2.893,0,0,0,.321-1.6,37.778,37.778,0,0,1,.617-6.169c.617.056,1.3.111,1.955.154,5.453.376,11.147.456,16.137-1.789,6.915-3.115,11.184-10.074,14.706-16.791a3.972,3.972,0,0,0,6.57-2.776C123.3,81.208,120.045,79.419,117.88,80.011Z" transform="translate(-14.56 -12.934)" fill="#ffb9b9"/>
      <path id="Path_147" data-name="Path 147" d="M84.759,35.678C73.353,46.726,57.8,55.523,42.88,60.97c-1.635-2.239-1.542-5.219-1.067-8.723.339-2.77,3.232-8.13,4.935-10.32,5.243-6.638,9.833-9.222,17.735-12.245s23.373-2.745,33.391,1.986c11.776,5.552,19.395,12.109,23.12,17.482,6.169,8.92,9.29,20.758-1.456,28.586-17.272-13.658-34.051-40.485-34.779-42" transform="translate(-15.904 -10.616)" fill="#2f2e41"/>
    </g>
  </g>
</svg>
