<?xml version="1.0" encoding="utf-8"?>
<!-- Generator: Adobe Illustrator 19.0.0, SVG Export Plug-In . SVG Version: 6.00 Build 0)  -->
<svg version="1.1" id="Layer_1" xmlns="http://www.w3.org/2000/svg" xmlns:xlink="http://www.w3.org/1999/xlink" x="0px" y="0px"
	 viewBox="-112 343 386.9 108" style="enable-background:new -112 343 386.9 108;" xml:space="preserve">
<style type="text/css">
	.st0{enable-background:new    ;}
	.st1{clip-path:url(#SVGID_2_);fill:#E50000;}
	.st2{clip-path:url(#SVGID_4_);}
	.st3{clip-path:url(#SVGID_6_);fill:#FFFFFF;}
	.st4{clip-path:url(#SVGID_8_);}
</style>
<g class="st0">
	<path d="M23.3,428.2c-0.4-0.4-0.7-0.9-0.7-1.6v-58.1c0-0.6,0.2-1.2,0.7-1.6c0.4-0.4,1-0.6,1.6-0.6h10.7c0.6,0,1.2,0.2,1.6,0.6
		c0.4,0.4,0.6,0.9,0.6,1.6v29.4l11.7-13.4c0.1-0.1,0.3-0.3,0.7-0.6c0.3-0.3,0.7-0.5,1-0.7c0.4-0.1,0.8-0.2,1.3-0.2h12.4
		c0.5,0,1,0.2,1.4,0.6c0.4,0.4,0.6,0.9,0.6,1.5c0,0.5-0.2,1-0.6,1.4l-15.5,17.1l17.7,21.9c0.4,0.5,0.6,1,0.6,1.3
		c0,0.6-0.2,1.1-0.6,1.5c-0.4,0.4-0.9,0.6-1.5,0.6H54.3c-0.8,0-1.3-0.1-1.7-0.4c-0.4-0.2-0.8-0.6-1.4-1.1l-13.4-16.5v15.8
		c0,0.6-0.2,1.1-0.6,1.5c-0.4,0.4-0.9,0.7-1.6,0.7H24.9C24.2,428.8,23.7,428.6,23.3,428.2z"/>
</g>
<g class="st0">
	<path d="M86.5,428.2c-0.4-0.4-0.7-0.9-0.7-1.6v-45.1H70.3c-0.6,0-1.2-0.2-1.6-0.6c-0.4-0.4-0.7-0.9-0.7-1.6v-9.9
		c0-0.6,0.2-1.2,0.7-1.6c0.4-0.4,1-0.7,1.6-0.7h47.8c0.6,0,1.2,0.2,1.6,0.7c0.4,0.4,0.7,1,0.7,1.6v9.9c0,0.6-0.2,1.2-0.7,1.6
		c-0.4,0.4-1,0.6-1.6,0.6h-15.5v45.1c0,0.6-0.2,1.2-0.7,1.6c-0.4,0.4-1,0.6-1.6,0.6H88.1C87.5,428.8,86.9,428.6,86.5,428.2z"/>
</g>
<g class="st0">
	<path d="M127.3,424.5c-3.2-3.5-4.8-8.4-4.8-14.7v-24.6c0-0.6,0.2-1.2,0.7-1.6c0.4-0.4,1-0.6,1.5-0.6h11.7c0.6,0,1.2,0.2,1.6,0.6
		c0.4,0.4,0.7,0.9,0.7,1.6v24c0,5.5,2.4,8.2,7.3,8.2c2.3,0,4.2-0.7,5.5-2.2c1.3-1.4,2-3.4,2-6v-24c0-0.6,0.2-1.2,0.7-1.6
		c0.4-0.4,1-0.6,1.6-0.6h11.6c0.6,0,1.2,0.2,1.6,0.6c0.4,0.4,0.6,0.9,0.6,1.6v41.4c0,0.6-0.2,1.1-0.6,1.5c-0.4,0.4-0.9,0.7-1.6,0.7
		h-10.7c-0.6,0-1.2-0.2-1.6-0.6c-0.4-0.4-0.7-0.9-0.7-1.6v-3.3c-3.1,4.3-7.9,6.4-14.6,6.4C134.6,429.7,130.5,427.9,127.3,424.5z"/>
</g>
<g class="st0">
	<path d="M191.1,423.9v2.7c0,0.6-0.2,1.1-0.6,1.5c-0.4,0.4-0.9,0.7-1.6,0.7h-10.5c-0.6,0-1.2-0.2-1.6-0.6c-0.4-0.4-0.7-0.9-0.7-1.6
		v-58.1c0-0.6,0.2-1.2,0.7-1.6c0.4-0.4,1-0.6,1.6-0.6h11.4c0.6,0,1.2,0.2,1.6,0.6c0.4,0.4,0.6,0.9,0.6,1.6v18.7
		c3.2-3.4,7.5-5.1,12.8-5.1c5.6,0,10.1,1.8,13.4,5.5c3.3,3.7,5,8.7,5.3,15.1c0.1,0.8,0.1,1.8,0.1,3.2c0,1.3,0,2.3-0.1,3.1
		c-0.2,6.6-2,11.7-5.2,15.3c-3.3,3.6-7.7,5.4-13.4,5.4C198.8,429.7,194.3,427.7,191.1,423.9z M205.3,415.1c1.1-1.6,1.8-3.7,2-6.5
		c0.1-0.6,0.1-1.5,0.1-2.7c0-1.2,0-2.1-0.1-2.7c-0.2-2.8-0.8-4.9-2-6.5c-1.1-1.6-3-2.3-5.7-2.3c-2.5,0-4.3,0.7-5.6,2.2
		s-2,3.4-2.1,5.7c-0.1,0.8-0.1,1.8-0.1,3.3c0,1.4,0,2.5,0.1,3.3c0.1,2.5,0.8,4.5,2,6.1c1.2,1.6,3.1,2.4,5.6,2.4
		C202.3,417.4,204.2,416.7,205.3,415.1z"/>
</g>
<g class="st0">
	<path d="M234.8,423.9c-4.1-3.8-6.2-9.4-6.3-16.8v-2.7c0.2-7,2.4-12.4,6.5-16.4c4.1-3.9,9.6-5.9,16.6-5.9c5,0,9.3,1,12.8,3
		c3.5,2,6.1,4.8,7.8,8.4c1.7,3.6,2.6,7.6,2.6,12.1v2.2c0,0.6-0.2,1.2-0.7,1.6c-0.4,0.4-1,0.7-1.6,0.7h-27.9v0.5
		c0.1,2.6,0.7,4.8,1.8,6.4c1.2,1.6,2.8,2.4,5,2.4c1.4,0,2.5-0.3,3.4-0.8c0.8-0.6,1.7-1.3,2.4-2.2c0.5-0.6,1-1,1.3-1.1
		c0.3-0.1,0.8-0.2,1.5-0.2h11.5c0.5,0,1,0.2,1.4,0.5c0.4,0.3,0.6,0.7,0.6,1.2c0,1.5-0.9,3.3-2.6,5.4c-1.7,2.1-4.3,3.8-7.6,5.3
		c-3.3,1.5-7.2,2.2-11.7,2.2C244.5,429.7,238.9,427.7,234.8,423.9z M258.6,401.2V401c0-2.8-0.6-5-1.8-6.6c-1.2-1.6-3-2.3-5.2-2.3
		c-2.2,0-3.9,0.8-5.1,2.3c-1.2,1.6-1.8,3.7-1.8,6.6v0.2H258.6z"/>
</g>
<g>
	<g>
		<defs>
			<rect id="SVGID_1_" x="-338.1" y="101.2" width="841.9" height="595.3"/>
		</defs>
		<clipPath id="SVGID_2_">
			<use xlink:href="#SVGID_1_"  style="overflow:visible;"/>
		</clipPath>
		<path class="st1" d="M-110.9,395.9c0.1-16.7,1.3-24.7,5-36.6c0.7-2.3,1.6-4.6,2.7-6.7c3.1-6.6,6.6-8.6,14-8.2
			c8.3,0.4,16.1,3.1,23.8,6c18.7,7,32.5,16.2,48.1,28.6c4.5,3.6,8.4,7.9,12.3,12.2c3.3,3.6,3.7,7.3,0.6,11.2c-4,5.5-6,7.2-11.4,11.7
			c-20.5,15.3-39.8,26.1-64.2,33.7c-2.7,0.8-5.5,1.3-8.3,1.9c-5.7,1.2-10.1-0.9-13.2-5.8c-4.3-6.7-5.9-14.2-6.9-21.8
			C-109.5,413.5-110.3,410.7-110.9,395.9"/>
	</g>
	<g>
		<defs>
			<rect id="SVGID_3_" x="-338.1" y="101.2" width="841.9" height="595.3"/>
		</defs>
		<clipPath id="SVGID_4_">
			<use xlink:href="#SVGID_3_"  style="overflow:visible;"/>
		</clipPath>
		<path class="st2" d="M-91.3,451.4c-14.1,0-17.5-20.8-18.8-31.2c-2.3-17.8-3.1-36,0.9-53.6c0.6-2.6,1.3-5.2,2.1-7.7
			c0.7-2.3,1.6-4.7,2.7-6.9c3.3-6.9,7.3-9.2,15.3-8.8c8.5,0.5,16.3,3.2,24.1,6.1c22.7,8.5,44.9,22.7,60.9,41.1
			c1.6,1.8,2.8,4,2.9,6.5c0.1,2.9-1.4,5.7-3.3,8c-3,3.6-6.5,6.9-10.1,9.9l-0.4,0.4c-22.2,16.6-41.5,26.7-64.5,33.9
			c-2.3,0.7-4.6,1.2-6.8,1.6C-88,451-89.6,451.4-91.3,451.4 M-109.7,395.9c0.5,11.8,1.1,16,2,21.7c0.2,1.4,0.4,2.9,0.7,4.6
			c1,7.2,2.5,14.7,6.7,21.3c2.9,4.6,6.8,6.3,11.9,5.2c0.5-0.1,1.1-0.2,1.6-0.3c2.2-0.4,4.5-0.9,6.6-1.6
			c22.7-7.1,41.8-17.2,63.8-33.5l0.3-0.2c5.1-4.4,7.1-6,10.9-11.2c2.6-3.3,2.4-6.4-0.5-9.7c-3.8-4.2-7.7-8.5-12.2-12.1
			c-15-12-28.9-21.4-47.8-28.5c-7.7-2.9-15.2-5.5-23.4-5.9c-7-0.4-10,1.4-12.9,7.4c-1,2.1-1.9,4.4-2.6,6.6
			C-108.6,371.7-109.6,379.5-109.7,395.9"/>
	</g>
	<g>
		<defs>
			<rect id="SVGID_5_" x="-338.1" y="101.2" width="841.9" height="595.3"/>
		</defs>
		<clipPath id="SVGID_6_">
			<use xlink:href="#SVGID_5_"  style="overflow:visible;"/>
		</clipPath>
		<path class="st3" d="M-84.3,397.1c0-6.5,0.5-9.6,1.9-14.3c0.3-0.9,0.6-1.8,1-2.6c1.2-2.6,2.6-3.3,5.5-3.2c3.2,0.2,6.3,1.2,9.3,2.3
			c7.3,2.7,14.1,6.3,20.1,11.2c1.8,1.4,3.5,2.9,4.8,4.7c1.3,1.8,1.4,2.9,0.2,4.4c-1.5,2.1-2.3,2.8-4.4,4.6c-8,6-16.9,10.2-26.4,13.1
			c-1.1,0.3-2.1,0.5-3.2,0.7c-2.2,0.5-3.9-0.3-5.1-2.2c-1.7-2.6-2.3-5.5-2.7-8.5C-83.8,404-84.1,402.9-84.3,397.1"/>
	</g>
	<g>
		<defs>
			<rect id="SVGID_7_" x="-338.1" y="101.2" width="841.9" height="595.3"/>
		</defs>
		<clipPath id="SVGID_8_">
			<use xlink:href="#SVGID_7_"  style="overflow:visible;"/>
		</clipPath>
		<path class="st4" d="M-76.7,419.4c-2,0-3.7-1-5-2.9c-1.8-2.9-2.5-6-2.9-9c-0.1-0.7-0.2-1.2-0.3-1.8c-0.3-2.3-0.6-3.9-0.8-8.6l0,0
			l0,0c0-6.5,0.5-9.8,2-14.6c0.3-0.9,0.7-1.9,1.1-2.8c1.4-3,3.2-4,6.7-3.9c3.4,0.2,6.5,1.3,9.6,2.4c7.9,3,14.6,6.7,20.5,11.3
			c1.7,1.3,3.6,2.9,5,5c1.2,1.7,2,3.5,0.2,5.8c-1.6,2.2-2.5,2.9-4.5,4.6l-0.2,0.1c-7.7,5.7-16.4,10.1-26.8,13.3
			c-0.9,0.3-1.8,0.5-2.7,0.7l-0.6,0.1C-75.7,419.4-76.2,419.4-76.7,419.4 M-83.4,397.1c-0.1,5,0.5,10,2,14.5c1.4,4.4,4.3,6,8.8,4.6
			c10-3.2,19.9-7.8,28.1-14.6c1.1-0.9,2.3-2.1,2.5-3.5c0.2-1.5-0.7-3-1.9-4c-6.6-6-14.8-10.4-23.1-13.6c-2.9-1.1-5.8-2.1-8.9-2.3
			c-4.5-0.2-5.3,4.6-6.1,8.2C-82.9,389.8-83.3,393.4-83.4,397.1"/>
	</g>
</g>
</svg>
