<svg xmlns="http://www.w3.org/2000/svg" width="42.892" height="30.031" viewBox="0 0 42.892 30.031"><path d="M42.008-1.383a5.373,5.373,0,0,0-3.78-3.781c-3.356-.918-16.782-.918-16.782-.918S8.02-6.082,4.664-5.2A5.482,5.482,0,0,0,.883-1.383C0,1.973,0,8.934,0,8.934s0,7,.883,10.316a5.374,5.374,0,0,0,3.781,3.781c3.392.919,16.782.919,16.782.919s13.425,0,16.782-.884a5.374,5.374,0,0,0,3.781-3.78c.883-3.356.883-10.316.883-10.316S42.927,1.973,42.008-1.383ZM17.171,15.364V2.5l11.164,6.43Zm0,0" transform="translate(0 6.082)"/></svg>