<svg xmlns="http://www.w3.org/2000/svg" width="106.029" height="91.903" viewBox="0 0 106.029 91.903">
  <g id="playlistnew" transform="translate(0 -34)">
    <path id="Path_252" data-name="Path 252" d="M93.684,62.273V58.731a10.6,10.6,0,0,0-10.6-10.6V44.6A10.6,10.6,0,0,0,72.474,34h-38.9a10.6,10.6,0,0,0-10.6,10.6v3.542a10.6,10.6,0,0,0-10.6,10.6v3.542A12.371,12.371,0,0,0,0,74.659v38.878A12.371,12.371,0,0,0,12.366,125.9h81.3a12.371,12.371,0,0,0,12.366-12.366V74.659A12.371,12.371,0,0,0,93.684,62.273ZM26.512,44.6a7.059,7.059,0,0,1,7.063-7.063H72.453A7.059,7.059,0,0,1,79.517,44.6v3.542h-53Zm-10.6,14.147a7.072,7.072,0,0,1,7.063-7.063H83.058a7.059,7.059,0,0,1,7.063,7.063v3.542H15.907Zm86.6,54.785a8.853,8.853,0,0,1-8.844,8.844h-81.3a8.853,8.853,0,0,1-8.844-8.844V74.659a8.853,8.853,0,0,1,8.844-8.844h81.3a8.853,8.853,0,0,1,8.844,8.844Z" fill="#e50000"/>
    <g id="Group_141" data-name="Group 141" transform="translate(33.472 75.14)">
      <path id="Path_253" data-name="Path 253" d="M168.932,270.791c-4.971,0-6.152-7.332-6.649-11-.829-6.276-1.1-12.676.311-18.89.207-.911.456-1.823.725-2.713a18.625,18.625,0,0,1,.953-2.444c1.181-2.444,2.589-3.252,5.385-3.107a28.751,28.751,0,0,1,8.513,2.154,53.856,53.856,0,0,1,21.479,14.52,3.71,3.71,0,0,1,1.015,2.3,4.462,4.462,0,0,1-1.181,2.817,27.27,27.27,0,0,1-3.583,3.5l-.124.1a72.631,72.631,0,0,1-22.7,11.951,24.242,24.242,0,0,1-2.423.58A9.528,9.528,0,0,1,168.932,270.791Zm-6.5-19.574a63.691,63.691,0,0,0,.684,7.643c.062.5.145,1.015.228,1.616a18.327,18.327,0,0,0,2.361,7.519,3.7,3.7,0,0,0,4.2,1.843,5.288,5.288,0,0,1,.559-.1,18,18,0,0,0,2.32-.559,71.706,71.706,0,0,0,22.494-11.827l.1-.083a18.211,18.211,0,0,0,3.832-3.956,2.372,2.372,0,0,0-.186-3.418,39.512,39.512,0,0,0-4.288-4.246c-5.3-4.246-10.191-7.56-16.84-10.066a27.57,27.57,0,0,0-8.264-2.092c-2.465-.124-3.542.476-4.557,2.631a18.589,18.589,0,0,0-.911,2.32C162.842,242.683,162.449,245.438,162.428,251.217Z" transform="translate(-161.6 -232.622)" fill="#e50000"/>
      <g id="Group_140" data-name="Group 140" transform="translate(0.414 0.391)">
        <path id="Path_254" data-name="Path 254" d="M200.945,251.079a38.638,38.638,0,0,0-4.329-4.308c-5.51-4.391-10.377-7.622-16.964-10.108a28.57,28.57,0,0,0-8.389-2.133c-2.61-.145-3.853.539-4.971,2.858a16.693,16.693,0,0,0-.932,2.382c-1.3,4.2-1.719,7.022-1.761,12.9a67.625,67.625,0,0,0,.932,9.3,18.4,18.4,0,0,0,2.444,7.684,4.136,4.136,0,0,0,4.66,2.03,28.433,28.433,0,0,0,2.921-.684A72.978,72.978,0,0,0,197.2,259.115a18.81,18.81,0,0,0,4-4.122A2.749,2.749,0,0,0,200.945,251.079ZM188.1,253.916a7.634,7.634,0,0,1-1.553,1.616,31.179,31.179,0,0,1-9.321,4.64,11.332,11.332,0,0,1-1.139.269,1.628,1.628,0,0,1-1.823-.787,7.3,7.3,0,0,1-.953-3,26.452,26.452,0,0,1-.352-3.625,14.78,14.78,0,0,1,.684-5.033,8.743,8.743,0,0,1,.373-.932,1.7,1.7,0,0,1,1.947-1.118,11.186,11.186,0,0,1,3.273.829,25.937,25.937,0,0,1,7.1,3.935,9.3,9.3,0,0,1,1.7,1.678C188.455,253,188.518,253.378,188.1,253.916Z" transform="translate(-163.6 -234.511)" fill="#e50000"/>
      </g>
    </g>
  </g>
</svg>
