<svg id="Group_18" data-name="Group 18" xmlns="http://www.w3.org/2000/svg" width="84.417" height="84.418" viewBox="0 0 84.417 84.418">
  <g id="magnifier" transform="translate(0 0)">
    <g id="Group_15" data-name="Group 15" transform="translate(0)">
      <path id="Path_12" data-name="Path 12" d="M326.8,315.611l-19.367-19.368a37.28,37.28,0,0,1-11.192,11.191L315.6,326.8A7.913,7.913,0,0,0,326.8,315.611Z" transform="translate(-244.697 -244.702)" fill="#e50000"/>
      <path id="Path_13" data-name="Path 13" d="M63.314,31.657A31.657,31.657,0,1,0,31.658,63.313,31.658,31.658,0,0,0,63.314,31.657ZM31.658,55.4A23.742,23.742,0,1,1,55.4,31.657,23.767,23.767,0,0,1,31.658,55.4Z" transform="translate(-0.001)" fill="#e50000"/>
      <path id="Path_14" data-name="Path 14" d="M75.817,94.282h5.275a13.206,13.206,0,0,1,13.191-13.19V75.816A18.489,18.489,0,0,0,75.817,94.282Z" transform="translate(-62.626 -62.625)" fill="#e50000"/>
    </g>
  </g>
</svg>
