<svg id="Layer_2" data-name="Layer 2" xmlns="http://www.w3.org/2000/svg" width="53.176" height="53.176" viewBox="0 0 53.176 53.176">
  <g id="Capa_1" data-name="Capa 1" transform="translate(0 0)">
    <path id="Path_215" data-name="Path 215" d="M9.727,33.331a.751.751,0,0,1-.538-.213.731.731,0,0,1-.233-.538v-1.1H7.392a.741.741,0,0,1-.538-.223.731.731,0,0,1-.233-.538.761.761,0,0,1,.223-.558.772.772,0,0,1,.538-.233H10.5a1.421,1.421,0,0,0,1.015-.427,1.391,1.391,0,0,0,.416-1.015,1.452,1.452,0,0,0-1.442-1.442l-1.6.071a2.975,2.975,0,0,1-.355-5.929h.345V20.012a.751.751,0,0,1,.751-.772A.772.772,0,0,1,10.4,20v1.1h1.127a.761.761,0,0,1,0,1.523H8.834a1.452,1.452,0,0,0,0,2.893h1.634a2.975,2.975,0,0,1,.355,5.929h-.345v1.076a.772.772,0,0,1-.761.761Z" transform="translate(0.09 0.292)" fill="#e50000"/>
    <path id="Path_216" data-name="Path 216" d="M26.288,18.213A.751.751,0,0,1,25.75,18a.761.761,0,0,1-.223-.538V16.335H23.963a.761.761,0,0,1-.772-.761.751.751,0,0,1,.213-.538.731.731,0,0,1,.538-.233h3.117A1.442,1.442,0,0,0,28.5,13.35,1.462,1.462,0,0,0,27.069,11.9H25.455a2.964,2.964,0,0,1-2.132-5.076A2.893,2.893,0,0,1,25.1,6.03h.345V4.873a.772.772,0,1,1,1.533,0V5.959h1.107a.761.761,0,1,1,0,1.523h-2.69a1.453,1.453,0,0,0,.071,2.9h1.6a2.975,2.975,0,0,1,.355,5.929h-.355V17.39a.751.751,0,0,1-.751.761Z" transform="translate(0.341 0.061)" fill="#e50000"/>
    <path id="Path_217" data-name="Path 217" d="M26.288,48.44a.751.751,0,0,1-.538-.233.782.782,0,0,1-.223-.538V46.592H23.963a.761.761,0,0,1-.772-.761.751.751,0,0,1,.213-.538.731.731,0,0,1,.538-.234h3.117A1.442,1.442,0,0,0,28.5,43.607a1.462,1.462,0,0,0-1.431-1.492H25.455a2.964,2.964,0,0,1-2.132-5.076,2.9,2.9,0,0,1,1.777-.873h.345V35.13a.772.772,0,0,1,1.533,0v1.1h1.107a.761.761,0,1,1,0,1.523h-2.69a1.448,1.448,0,0,0,.071,2.893h1.6a2.975,2.975,0,0,1,.355,5.929h-.355v1.076a.751.751,0,0,1-.751.761Z" transform="translate(0.341 0.524)" fill="#e50000"/>
    <path id="Path_218" data-name="Path 218" d="M42.677,33.33a.772.772,0,0,1-.538-.213.761.761,0,0,1-.223-.538v-1.1H40.352a.761.761,0,0,1-.772-.761.721.721,0,0,1,.223-.538.772.772,0,0,1,.538-.233h3.117a1.447,1.447,0,0,0-.01-2.893l-1.6.061a3.046,3.046,0,0,1-2.995-3.046,2.975,2.975,0,0,1,.863-2.03,2.893,2.893,0,0,1,1.777-.863h.345V20.01a.772.772,0,0,1,1.533,0v1.1h1.127a.772.772,0,0,1,.772.761.761.761,0,0,1-.761.761h-2.69a1.452,1.452,0,0,0,0,2.893h1.6a2.975,2.975,0,0,1,.355,5.929h-.345v1.076a.751.751,0,0,1-.751.761Z" transform="translate(0.591 0.294)" fill="#e50000"/>
    <path id="Path_219" data-name="Path 219" d="M26.588,53.176A26.588,26.588,0,1,1,53.176,26.588,26.588,26.588,0,0,1,26.588,53.176Zm0-51.146A24.558,24.558,0,1,0,51.146,26.588,24.558,24.558,0,0,0,26.588,2.03Z" transform="translate(0 0)" fill="#e50000"/>
    <path id="Path_220" data-name="Path 220" d="M26.161,28.82l-13.2,13.2a.355.355,0,0,1-.518,0l-1.624-1.574a.365.365,0,0,1,0-.518l13.2-13.2a.365.365,0,0,0,0-.518l-13.2-13.2a.365.365,0,0,1,0-.518l1.624-1.624a.365.365,0,0,1,.518,0l13.2,13.2a.365.365,0,0,0,.518,0l13.2-13.2a.365.365,0,0,1,.518,0L42.019,12.5a.355.355,0,0,1,0,.518l-13.2,13.2a.365.365,0,0,0,0,.518l13.2,13.2a.355.355,0,0,1,0,.518l-1.574,1.574a.355.355,0,0,1-.518,0l-13.2-13.2a.365.365,0,0,0-.569,0Z" transform="translate(0.163 0.164)" fill="#e50000"/>
  </g>
</svg>
