<svg xmlns="http://www.w3.org/2000/svg" width="53.171" height="53.175" viewBox="0 0 53.171 53.175">
  <g id="Layer_2" data-name="Layer 2" transform="translate(-0.003 0.015)">
    <g id="Capa_1" data-name="Capa 1">
      <path id="Path_224" data-name="Path 224" d="M26.58,53.16A26.523,26.523,0,1,1,48.79,41.25v.53A2.53,2.53,0,0,1,50.26,44v4.79a2.53,2.53,0,0,1-2.53,2.52H40.49a2.54,2.54,0,0,1-2-1,26.69,26.69,0,0,1-11.91,2.85Zm0-51.28A24.709,24.709,0,1,0,38,48.5V44a2.51,2.51,0,0,1,1.47-2.29V40.9a4.51,4.51,0,0,1,4.67-4.31,4.81,4.81,0,0,1,4,2.09A24.71,24.71,0,0,0,26.58,1.88ZM40.49,43.49A.52.52,0,0,0,40,44v4.79a.52.52,0,0,0,.52.52h7.24a.52.52,0,0,0,.53-.52V44a.53.53,0,0,0-.53-.53Zm6.3-2V40.9a2.7,2.7,0,0,0-5.35,0v.59Z" fill="#e50000"/>
      <path id="Path_225" data-name="Path 225" d="M44.14,47.88a.51.51,0,0,1-.71,0l-1.1-1.1a.51.51,0,0,1,0-.71.5.5,0,0,1,.71,0l.66.65a.13.13,0,0,0,.18,0L45.65,45a.5.5,0,0,1,.71,0,.51.51,0,0,1,.15.35.53.53,0,0,1-.15.36Z" fill="#e50000"/>
      <path id="Path_226" data-name="Path 226" d="M14.83,36.82a.63.63,0,0,1-.63-.63V28.77A4.84,4.84,0,0,1,18.46,24a3.11,3.11,0,0,1-.63-1.88V18.81a2.48,2.48,0,0,1,2.47-2.47h4.23a.63.63,0,0,1,.63.63v.64a2.88,2.88,0,0,1-1.1,2.25V22.1a3.11,3.11,0,0,1-.63,1.9,4.76,4.76,0,0,1,3.86,2.87,4.88,4.88,0,0,1,.52-.66v-4a4.88,4.88,0,1,1,9.75,0v4A5.28,5.28,0,0,1,39,29.76v6.43a.63.63,0,0,1-.63.63Zm22.86-1.27V29.76A4.05,4.05,0,0,0,35,26a2.37,2.37,0,0,1-4.58,0,4,4,0,0,0-2.59,2.82A2.38,2.38,0,0,1,29.41,31a2.34,2.34,0,0,1-.55,1.51,4.1,4.1,0,0,1,2.22,3Zm-7.9,0a2.81,2.81,0,0,0-5.47,0Zm-6.75,0a4.09,4.09,0,0,1,2.21-3,2.35,2.35,0,0,1,1.17-3.78,3.54,3.54,0,0,0-.86-2.31,3.59,3.59,0,0,0-2-1.16,2.7,2.7,0,0,1-5.27,0,3.59,3.59,0,0,0-2,1.16,3.54,3.54,0,0,0-.86,2.32v6.78Zm4-5.61a1.09,1.09,0,1,0,.986,1.085,1.09,1.09,0,0,0-.986-1.085Zm4.59-4.19a1.1,1.1,0,0,0,2.06,0H31.65Zm-12-.53a1.43,1.43,0,0,0,2.67,0ZM32.69,18.6a3.62,3.62,0,0,0-3.62,3.61v3a5.31,5.31,0,0,1,1.33-.54,3,3,0,0,1-.64-1.82v-1.5a.63.63,0,0,1,.63-.63h.51a3.29,3.29,0,0,0,2.28-.91.66.66,0,0,1,.44-.17.63.63,0,0,1,.46.2.58.58,0,0,1,.17.45.59.59,0,0,1-.2.44v.05A2.28,2.28,0,0,0,35,21a.63.63,0,0,1,.62.63v1.15A2.89,2.89,0,0,1,35,24.64a5.31,5.31,0,0,1,1.33.54v-3A3.61,3.61,0,0,0,32.69,18.6ZM31,22.82a1.66,1.66,0,1,0,3.31,0v-.58a3.59,3.59,0,0,1-1.48-.69A4.46,4.46,0,0,1,31,22ZM19.1,22.1a1.85,1.85,0,1,0,3.69,0V20.47H19.1Zm3.21-2.9a1.59,1.59,0,0,0,1.58-1.59H20.3a1.2,1.2,0,0,0-1.2,1.2v.39Z" fill="#e50000"/>
    </g>
  </g>
</svg>
