<svg id="Layer_2" data-name="Layer 2" xmlns="http://www.w3.org/2000/svg" width="53.373" height="53.371" viewBox="0 0 53.373 53.371">
  <g id="Layer_1" data-name="Layer 1" transform="translate(0)">
    <path id="Path_239" data-name="Path 239" d="M24.5,180.207v-.218l.075-.063.083-.065.052-.042.29.294a.852.852,0,0,0-.1.178Z" transform="translate(-21.938 -161.012)" fill="#e50000"/>
    <path id="Path_240" data-name="Path 240" d="M26.49,181.595v-.12c.044-.037.089-.069.133-.1A.981.981,0,0,0,26.49,181.595Z" transform="translate(-23.719 -162.4)" fill="#e50000"/>
    <path id="Path_241" data-name="Path 241" d="M33.3,111.595a12.074,12.074,0,0,1-6.6-1.952l-.094-.061v-2.276l.336.265a10.323,10.323,0,0,0,15.423-3.181,3.918,3.918,0,0,1,.9-7.622A10.317,10.317,0,0,0,26.988,91.3l-.022.018-.027.01-.321.209-.007-.379V89.328l.094-.062a12.076,12.076,0,0,1,6.6-1.951,12.246,12.246,0,0,1,2.778.32l5.357-5.745A3.723,3.723,0,0,1,44.15,80.71h.1l5.777.158a12.2,12.2,0,0,1,5.334,1.4l7.445,3.927a3.781,3.781,0,0,0,1.758.435h.926v-1.3a.4.4,0,0,1,.4-.4h4.849a.4.4,0,0,1,.4.4l2.092,1.029a.4.4,0,0,1-.4.394H67.313V101.77h7.923a.4.4,0,0,1,.4.4v1.029a.4.4,0,0,1-.4.394H65.889a.4.4,0,0,1-.4-.394v-1.312H64.03a2.815,2.815,0,0,0-1.66.537l-3.7,2.674a9.309,9.309,0,0,1-7.769,1.48l-6.726-1.712A12.146,12.146,0,0,1,33.3,111.595ZM43.595,98.577a2.078,2.078,0,0,0-1.478.616,2.1,2.1,0,0,0,.969,3.518l8.263,2.1a7.54,7.54,0,0,0,1.858.233,7.459,7.459,0,0,0,4.393-1.425l3.7-2.674a4.628,4.628,0,0,1,2.726-.882h1.464V88.457h-.926a5.6,5.6,0,0,1-2.607-.645l-7.437-3.934a10.4,10.4,0,0,0-4.533-1.188l-5.778-.158h-.052a1.906,1.906,0,0,0-1.387.6l-4.775,5.119a12.106,12.106,0,0,1,3.131,1.913l2.567-1.987A2.8,2.8,0,0,1,45.4,87.6a2.762,2.762,0,0,1,.427.033l3.67.574a2.762,2.762,0,0,1,2.126,1.653l1.83,4.269a2.773,2.773,0,0,1-.744,3.206l-2,1.717a2.785,2.785,0,0,1-2.471.594L44.1,98.638a2.117,2.117,0,0,0-.507-.061Zm5.068-.7a.976.976,0,0,0,.227.027.962.962,0,0,0,.628-.233l2-1.719a.959.959,0,0,0,.257-1.109l-1.827-4.273A.956.956,0,0,0,49.216,90l-3.672-.575a.989.989,0,0,0-.147-.012.97.97,0,0,0-.59.2l-2.373,1.837A12.084,12.084,0,0,1,45.2,97.035Z" transform="translate(-23.827 -72.268)" fill="#e50000"/>
    <path id="Path_242" data-name="Path 242" d="M28.59,109.551v1.728a11.938,11.938,0,0,0,17.177-4.707.186.186,0,0,1,.209-.1l6.743,1.716a9.111,9.111,0,0,0,7.592-1.448l3.7-2.674a3.024,3.024,0,0,1,1.778-.575h1.489a.187.187,0,0,1,.187.187v1.331a.187.187,0,0,0,.187.187H77a.187.187,0,0,0,.187-.187v-1.029a.187.187,0,0,0-.187-.187H69.066a.187.187,0,0,1-.187-.187V88.546a.187.187,0,0,1,.187-.186H74.6a.187.187,0,0,0,.187-.187l-1.046-1.029a.187.187,0,0,0-.187-.187H67.662a.187.187,0,0,0-.187.187v1.33a.187.187,0,0,1-.187.187h-.947a3.989,3.989,0,0,1-1.855-.458l-7.445-3.934a12,12,0,0,0-5.24-1.374l-5.778-.157a3.5,3.5,0,0,0-2.662,1.114L38,89.6a.188.188,0,0,1-.18.053,11.923,11.923,0,0,0-9.229,1.6v1.714a.348.348,0,0,1,.043-.023,10.526,10.526,0,0,1,16.62,5.608.185.185,0,0,1-.166.232,3.71,3.71,0,0,0-.858,7.226.187.187,0,0,1,.1.266,10.531,10.531,0,0,1-15.743,3.27ZM44.062,93.119l2.387-1.849a1.177,1.177,0,0,1,.9-.231l3.671.575a1.162,1.162,0,0,1,.894.694l1.83,4.271a1.165,1.165,0,0,1-.314,1.348l-1.995,1.716a1.165,1.165,0,0,1-1.04.25l-3.477-.846a.187.187,0,0,1-.138-.145,11.8,11.8,0,0,0-2.736-5.513.187.187,0,0,1,.019-.271Zm.747,11.61a2.306,2.306,0,0,1,1.114-4.474l4.133,1.007a2.578,2.578,0,0,0,2.287-.549l2-1.719a2.565,2.565,0,0,0,.688-2.966L53.2,91.759a2.559,2.559,0,0,0-1.967-1.529l-3.671-.579a2.581,2.581,0,0,0-1.974.507l-2.58,2a.186.186,0,0,1-.235-.006,11.917,11.917,0,0,0-3.114-1.9.186.186,0,0,1-.067-.3l4.794-5.141a2.1,2.1,0,0,1,1.6-.668l5.778.157a10.607,10.607,0,0,1,4.624,1.213l7.444,3.927a5.389,5.389,0,0,0,2.51.622h.947a.187.187,0,0,1,.187.187V101.9a.187.187,0,0,1-.187.187H65.8a4.417,4.417,0,0,0-2.6.842l-3.7,2.674a7.7,7.7,0,0,1-6.424,1.224Z" transform="translate(-25.6 -74.083)" fill="#e50000"/>
    <path id="Path_243" data-name="Path 243" d="M41.592,214.5a1.041,1.041,0,0,1-.732-1.778l2.391-2.391a1.36,1.36,0,0,0-1.918-1.917l-1.22,1.22a3.438,3.438,0,0,1-5.106-4.589l.118-.145-.686-.689a1.046,1.046,0,0,1,.732-1.778,1.033,1.033,0,0,1,.732.3l.69.69.716-.716a1.046,1.046,0,1,1,1.475,1.472l-2.061,2.06a1.36,1.36,0,0,0,1.917,1.917l1.218-1.216a3.438,3.438,0,0,1,5.106,4.59l-.118.145.691.689a1.046,1.046,0,1,1-1.477,1.472l-.69-.689-1.046,1.046a1.03,1.03,0,0,1-.732.305Z" transform="translate(-30.569 -181.167)" fill="#e50000"/>
    <path id="Path_244" data-name="Path 244" d="M43.725,217.122a.837.837,0,0,1-.588-1.422l2.391-2.391a1.563,1.563,0,0,0-2.211-2.21L42.1,212.318a3.23,3.23,0,0,1-4.794-4.312l.235-.291-.822-.822a.837.837,0,0,1,1.179-1.179l.837.837.863-.863a.837.837,0,0,1,1.179,1.178l-2.065,2.063a1.564,1.564,0,1,0,2.211,2.211l1.217-1.219a3.23,3.23,0,0,1,4.8,4.308l-.234.291.822.821a.834.834,0,0,1-1.179,1.179l-.837-.837-1.2,1.2a.823.823,0,0,1-.589.244Z" transform="translate(-32.702 -184.002)" fill="#e50000"/>
    <path id="Path_245" data-name="Path 245" d="M26.685,53.371A26.645,26.645,0,0,1,7.844,7.844,26.654,26.654,0,0,1,50.277,39.133a8.183,8.183,0,1,1-11.7,11.427,26.241,26.241,0,0,1-11.894,2.81ZM44.669,38.36A6.736,6.736,0,1,0,51.4,45.1a6.736,6.736,0,0,0-6.735-6.735ZM26.685,1.972A24.679,24.679,0,0,0,9.236,44.137a24.585,24.585,0,0,0,28.2,4.79A8.183,8.183,0,0,1,48.667,37.956,24.75,24.75,0,0,0,26.685,1.972Z" transform="translate(0)" fill="#e50000"/>
    <path id="Path_246" data-name="Path 246" d="M51.806,40.966A26.5,26.5,0,0,0,28.476,2a26.441,26.441,0,0,0-18.7,45.173,26.357,26.357,0,0,0,30.64,4.92A7.976,7.976,0,1,0,51.806,40.966ZM46.46,53.831A6.943,6.943,0,1,1,53.4,46.888a6.943,6.943,0,0,1-6.943,6.943ZM28.476,53.4A24.889,24.889,0,0,1,10.88,10.88a24.918,24.918,0,0,1,42.514,17.6,24.656,24.656,0,0,1-2.855,11.556,7.975,7.975,0,0,0-11.03,10.773A24.657,24.657,0,0,1,28.476,53.4Z" transform="translate(-1.791 -1.791)" fill="#e50000"/>
    <path id="Path_247" data-name="Path 247" d="M392.345,408.534a1.068,1.068,0,0,1-.76-.314l-1.9-1.9A1.075,1.075,0,0,1,391.2,404.8l1.133,1.133.163.146-.146-.146,3.068-3.068a1.076,1.076,0,0,1,1.522,1.521l-3.837,3.835A1.068,1.068,0,0,1,392.345,408.534Z" transform="translate(-348.644 -360.445)" fill="#e50000"/>
    <path id="Path_248" data-name="Path 248" d="M397.424,404.6l-3.068,3.068a.219.219,0,0,1-.314,0l-1.133-1.133a.868.868,0,0,0-1.228,1.227l1.91,1.9a.87.87,0,0,0,1.228,0l3.836-3.837a.868.868,0,1,0-1.232-1.222Z" transform="translate(-350.501 -362.035)" fill="#e50000"/>
  </g>
</svg>
