<svg id="Layer_2" data-name="Layer 2" xmlns="http://www.w3.org/2000/svg" width="53.345" height="53.349" viewBox="0 0 53.345 53.349">
  <g id="Capa_1" data-name="Capa 1">
    <path id="Path_234" data-name="Path 234" d="M148.744,145.94H122.9a1.006,1.006,0,0,0,0,2.011h25.848a1.006,1.006,0,1,0,0-2.011Z" transform="translate(-109.147 -130.683)" fill="#e50000"/>
    <path id="Path_235" data-name="Path 235" d="M173.191,104.73H153.806a1.006,1.006,0,0,0,0,2.011h19.386a1.006,1.006,0,0,0,0-2.011Z" transform="translate(-136.826 -93.781)" fill="#e50000"/>
    <path id="Path_236" data-name="Path 236" d="M143.817,205.755c-.785,0-7.713-.015-9.677-.5a3.743,3.743,0,0,1-2.823-2.816,33.791,33.791,0,0,1-.5-6.01,33.261,33.261,0,0,1,.5-6.009,3.745,3.745,0,0,1,2.823-2.823c1.963-.483,8.886-.5,9.677-.5s7.712.015,9.675.5a3.745,3.745,0,0,1,2.817,2.823,36.463,36.463,0,0,1,0,12.019,3.74,3.74,0,0,1-2.817,2.816C151.529,205.74,144.6,205.755,143.817,205.755Zm0-16.8a72.113,72.113,0,0,0-9.24.445h-.024a1.882,1.882,0,0,0-1.427,1.427v.023a35.081,35.081,0,0,0,0,11.144v.024a1.888,1.888,0,0,0,1.427,1.427l.024.005a72.13,72.13,0,0,0,9.24.445,72.094,72.094,0,0,0,9.239-.445l.024-.005a1.888,1.888,0,0,0,1.427-1.427l.005-.024a35.081,35.081,0,0,0,0-11.144l-.005-.023a1.888,1.888,0,0,0-1.427-1.427h-.024A72.084,72.084,0,0,0,143.817,188.957ZM141.7,200.845a1.171,1.171,0,0,1-1.173-1.172v-6.363a1.174,1.174,0,0,1,1.765-1.012l5.528,3.234a1.173,1.173,0,0,1-.015,2.032l-5.528,3.129A1.17,1.17,0,0,1,141.7,200.845Zm.678-6.351v4.016l3.489-1.975Z" transform="translate(-117.144 -167.54)" fill="#e50000"/>
    <path id="Path_237" data-name="Path 237" d="M50.175,39.255A26.7,26.7,0,0,0,26.673,0,26.635,26.635,0,0,0,7.841,45.508,26.532,26.532,0,0,0,38.7,50.463,8.034,8.034,0,1,0,50.175,39.255ZM44.789,52.212a6.994,6.994,0,1,1,6.994-6.994A6.994,6.994,0,0,1,44.789,52.212Zm-18.115-.435A25.068,25.068,0,0,1,8.947,8.947a25.1,25.1,0,0,1,42.83,17.726A24.827,24.827,0,0,1,48.9,38.314,8.033,8.033,0,0,0,37.789,49.166a24.834,24.834,0,0,1-11.116,2.611Z" fill="#e50000"/>
    <path id="Path_238" data-name="Path 238" d="M398.432,405.723l-3.09,3.09a.219.219,0,0,1-.314,0l-1.142-1.141a.874.874,0,0,0-1.237,1.236l1.916,1.916a.875.875,0,0,0,1.236,0l3.868-3.868a.875.875,0,1,0-1.237-1.237Z" transform="translate(-351.371 -363.055)" fill="#e50000"/>
  </g>
</svg>
